<svg width="75" height="24" viewBox="0 0 75 24" fill="none" xmlns="http://www.w3.org/2000/svg">
<path d="M3.78358 15.834H5.7359C6.93791 15.834 7.83941 15.6616 8.44042 15.0587C9.0408 14.4344 9.3413 13.5094 9.3413 12.2603C9.3413 10.9899 8.99831 10.0648 8.33296 9.4619C7.64637 8.85898 6.4656 8.55814 4.74944 8.55814C4.47018 8.55814 4.04098 8.57945 3.78358 8.57945V15.834ZM3.78358 8.04108H4.36272C5.99392 8.04108 7.08847 7.78287 7.68885 7.26643C8.28985 6.74937 8.56911 5.93148 8.56911 4.76888C8.56911 3.97229 8.46166 3.34806 8.22551 2.91749C7.98935 2.46561 7.6245 2.14284 7.17406 1.90594C6.70176 1.64772 5.92957 1.53992 4.79192 1.53992C4.49142 1.53992 4.04098 1.53992 3.78358 1.56186V8.04108ZM1.57324 0.980243H4.68446C8.86962 0.980243 10.9719 2.18609 10.9719 4.61846C10.9719 5.60871 10.607 6.4266 9.87795 7.02953C9.16949 7.63245 8.07557 8.04108 6.63741 8.25668C8.37607 8.38579 9.66304 8.81636 10.5214 9.54776C11.3586 10.3011 11.7878 11.2268 11.7878 12.3248C11.7878 13.2938 11.4873 14.1336 10.9294 14.8437C10.3496 15.5325 9.62056 15.9631 8.71905 16.178C7.81817 16.3936 6.63741 16.4795 5.13553 16.4795H1.57324V0.980243Z" fill="white"/>
<path d="M17.6021 16.4795H16.207V13.767V5.95279V3.19765H17.3447C17.3447 3.21896 17.3659 3.21896 17.3872 3.19765H17.6021V13.767V16.4795Z" fill="white"/>
<path d="M23.4821 11.0118H27.5811C27.5811 10.5813 27.2162 8.88093 25.5419 8.88093C24.3836 8.88093 23.7183 9.59103 23.4821 11.0118ZM28.4607 15.5112C28.2458 15.812 27.9672 16.0703 27.6236 16.2859C27.0444 16.6299 26.3791 16.8242 25.6925 16.8242C25.0271 16.8242 24.4261 16.6519 23.8258 16.3291C23.2466 15.9844 22.7743 15.5325 22.4095 14.9296C22.0446 14.3273 21.8516 13.5953 21.8516 12.7341C21.8516 11.507 22.2164 10.4948 22.9242 9.67689C23.6327 8.88093 24.5336 8.47167 25.6063 8.47167C26.6152 8.47167 27.4093 8.77313 27.9459 9.39737C28.5038 10.0003 28.7181 10.6458 28.7181 11.3992H23.4609C23.4397 11.7652 23.4178 12.0447 23.4178 12.2171C23.4178 13.5733 23.6327 14.6068 24.0619 15.2956C24.4692 15.9631 25.1127 16.3072 25.9499 16.3072C26.9157 16.3072 27.6454 15.9411 28.139 15.1878L28.4607 15.5112Z" fill="white"/>
<path d="M34.2104 8.2563H34.4247V12.3677V13.7672V16.4797H33.0515V13.7672V11.3775V11.2483V8.2563H34.2104ZM33.0302 5.37142C32.8372 5.17776 32.751 4.94085 32.751 4.63939C32.751 4.38117 32.8372 4.14427 33.0302 3.92929C33.2445 3.73563 33.4594 3.62783 33.7381 3.62783C34.0173 3.62783 34.2529 3.73563 34.4465 3.92929C34.6396 4.14427 34.7464 4.38117 34.7464 4.63939C34.7464 4.94085 34.6396 5.17776 34.4465 5.37142C34.2529 5.56571 34.0173 5.67288 33.7381 5.67288C33.4594 5.67288 33.2445 5.56571 33.0302 5.37142" fill="white"/>
<path d="M43.4153 15.0159C43.2866 15.6828 42.9649 16.1779 42.4501 16.5013C41.9347 16.824 41.3556 16.9318 40.6902 16.8027C40.0036 16.6517 39.4457 16.2431 39.0165 15.5756L39.3595 15.36C39.66 15.9197 40.1323 16.2644 40.7539 16.3935C41.2262 16.4793 41.5911 16.4148 41.8704 16.1779C42.1709 15.9416 42.3427 15.6401 42.407 15.3167C42.4926 14.9081 42.4283 14.5634 42.2352 14.2626C42.0422 13.9611 41.5911 13.5518 40.9482 13.0567C40.261 12.5403 39.7887 12.0452 39.5313 11.6146C39.2739 11.2053 39.1877 10.7321 39.2952 10.1938C39.3814 9.69865 39.66 9.26808 40.1111 8.88076C40.5397 8.49281 41.0982 8.3637 41.741 8.49281C42.3633 8.62254 42.8356 8.96662 43.158 9.5263L42.815 9.7632C42.5357 9.28939 42.1709 9.00986 41.6773 8.92337C41.3125 8.83751 40.9907 8.90207 40.7333 9.07442C40.4541 9.26808 40.2823 9.50499 40.2185 9.80582C40.1536 10.1505 40.2392 10.452 40.4328 10.7535C40.6471 11.0336 41.0551 11.4209 41.6773 11.8728C42.6213 12.5403 43.1792 13.1432 43.3298 13.6383C43.4578 14.1335 43.5009 14.6066 43.4153 15.0159ZM38.8878 15.6614C38.8878 15.6828 38.8666 15.6828 38.8447 15.7047V15.6828L38.8878 15.6614Z" fill="white"/>
<path d="M53.1999 15.0158C52.8132 15.6181 52.384 16.0706 51.8904 16.3721C51.3969 16.6736 50.8608 16.824 50.2598 16.824C49.745 16.824 49.294 16.6949 48.8866 16.458C48.5006 16.2211 48.2213 15.9415 48.0714 15.5968C47.9214 15.274 47.8564 14.757 47.8564 14.0688V11.4209V8.77289H49.2084V14.1334C49.2084 14.6711 49.2515 15.0585 49.294 15.2954C49.359 15.5323 49.5308 15.7472 49.7882 15.9196C50.0455 16.0919 50.346 16.1778 50.6884 16.1778C51.1607 16.1778 51.6118 16.0274 52.0628 15.7046C52.4914 15.4032 52.7925 15.0585 52.9631 14.6924C53.1137 14.3484 53.1999 13.8319 53.1999 13.1858V11.4209V8.77289H54.5518V13.8532V16.5871H53.1999V15.0158Z" fill="white"/>
<path d="M61.5036 9.5049C61.0963 9.87029 60.8601 10.2795 60.7526 10.6888C60.6452 11.0981 60.6027 11.6577 60.6027 12.3678V13.7673V16.4792H59.207V13.7673V11.5286V8.25644H60.4953V10.3015C60.9669 8.68701 62.5981 7.99822 63.7564 8.62245L63.4778 9.1815C62.7481 8.70831 62.1683 8.90198 61.5036 9.5049Z" fill="white"/>
<path d="M68.1973 11.0118H72.2963C72.2963 10.5813 71.9314 8.88093 70.2577 8.88093C69.0988 8.88093 68.4341 9.59103 68.1973 11.0118ZM73.1759 15.5112C72.9616 15.812 72.683 16.0703 72.3394 16.2859C71.7596 16.6299 71.0949 16.8242 70.4083 16.8242C69.743 16.8242 69.1419 16.6519 68.5416 16.3291C67.9618 15.9844 67.4895 15.5325 67.1247 14.9296C66.7598 14.3273 66.5674 13.5953 66.5674 12.7341C66.5674 11.507 66.9322 10.4948 67.6394 9.67689C68.3479 8.88093 69.2494 8.47167 70.3215 8.47167C71.331 8.47167 72.1245 8.77313 72.6611 9.39737C73.219 10.0003 73.4333 10.6458 73.4333 11.3992H68.1767C68.1549 11.7652 68.133 12.0447 68.133 12.2171C68.133 13.5733 68.3479 14.6068 68.7771 15.2956C69.1844 15.9631 69.8285 16.3072 70.6657 16.3072C71.6309 16.3072 72.3606 15.9411 72.8542 15.1878L73.1759 15.5112Z" fill="white"/>
<path d="M1.77215 19.7788L0.880014 21.9448H2.6649L1.77215 19.7788ZM3.10597 23.0203L2.72613 22.0996H0.818164L0.438945 23.0203H0.249023L1.67469 19.5882H1.86961L3.29527 23.0203H3.10597Z" fill="white"/>
<path d="M4.92383 21.3068C4.92383 20.252 5.68289 19.5319 6.63125 19.5319C7.14979 19.5319 7.54962 19.7168 7.88324 20.0621L7.77516 20.1749C7.50839 19.8716 7.08794 19.6861 6.63125 19.6861C5.77535 19.6861 5.10313 20.3398 5.10313 21.3068C5.10313 22.2639 5.77535 22.9326 6.63125 22.9326C7.13417 22.9326 7.51901 22.6806 7.71893 22.4694V21.5281H6.30826V21.3739H7.88324V22.5365C7.59086 22.8662 7.14479 23.0874 6.63125 23.0874C5.68289 23.0874 4.92383 22.3616 4.92383 21.3068Z" fill="white"/>
<path d="M10.0645 23.0203V19.5882H12.1567V19.743H10.2288V21.1783H12.1211V21.3325H10.2288V22.8661H12.1567V23.0203H10.0645Z" fill="white"/>
<path d="M16.7905 23.0203L14.4827 19.8559V23.0203H14.3184V19.5882H14.4827L16.7905 22.7219V19.5882H16.9548V23.0203H16.7905Z" fill="white"/>
<path d="M19.1318 21.3067C19.1318 20.2519 19.8909 19.5318 20.8393 19.5318C21.3216 19.5318 21.727 19.7223 22.0294 20.072L21.9013 20.1849C21.6602 19.8815 21.2653 19.686 20.8393 19.686C19.9834 19.686 19.3111 20.3397 19.3111 21.3067C19.3111 22.2638 19.9834 22.9275 20.8393 22.9275C21.2653 22.9275 21.6602 22.7319 21.9013 22.4286L22.0344 22.5364C21.7114 22.9018 21.3216 23.0823 20.8393 23.0823C19.8909 23.0823 19.1318 22.3615 19.1318 21.3067Z" fill="white"/>
<path d="M24.0625 19.5882H24.2268V23.0203H24.0625V19.5882Z" fill="white"/>
<path d="M27.6999 19.7788L26.8077 21.9448H28.5926L27.6999 19.7788ZM29.0337 23.0203L28.6539 22.0996H26.7459L26.3667 23.0203H26.1768L27.6024 19.5882H27.7973L29.223 23.0203H29.0337Z" fill="white"/>
<path d="M36.4374 21.3068C36.4374 20.4475 35.8832 19.7424 34.9143 19.7424H34.0627V22.8661H34.9143C35.8832 22.8661 36.4374 22.1767 36.4374 21.3068ZM33.8984 23.0203V19.5882H34.9143C35.9757 19.5882 36.6167 20.3911 36.6167 21.3068C36.6167 22.2331 35.9757 23.0203 34.9143 23.0203H33.8984Z" fill="white"/>
<path d="M38.7988 23.0203V19.5882H40.8911V19.743H38.9625V21.1783H40.8549V21.3325H38.9625V22.8661H40.8911V23.0203H38.7988Z" fill="white"/>
<path d="M46.6744 23.0203V19.743H45.5205V19.5882H47.9976V19.743H46.8393V23.0203H46.6744Z" fill="white"/>
<path d="M50.0361 21.7185V19.5888H50.1998V21.7185C50.1998 22.48 50.5897 22.9275 51.3075 22.9275C52.0259 22.9275 52.4158 22.48 52.4158 21.7185V19.5888H52.5788V21.7185C52.5788 22.5677 52.1384 23.0823 51.3075 23.0823C50.4766 23.0823 50.0361 22.5627 50.0361 21.7185Z" fill="white"/>
<path d="M56.8844 20.5609C56.8844 20.0878 56.5565 19.7424 56.0535 19.7424H55.0377V21.3838H56.0535C56.5565 21.3838 56.8844 21.0341 56.8844 20.5609ZM56.8994 23.0203L55.8586 21.5387H55.0377V23.0203H54.874V19.5882H56.0535C56.6077 19.5882 57.0637 19.9336 57.0637 20.5609C57.0637 21.1883 56.6077 21.5387 56.0535 21.5387L57.11 23.0203H56.8994Z" fill="white"/>
<path d="M59.2354 19.5882H59.4003V23.0203H59.2354V19.5882Z" fill="white"/>
<path d="M61.5137 22.5368L61.6474 22.4183C61.8573 22.6759 62.2159 22.9279 62.7088 22.9279C63.4985 22.9279 63.6984 22.4747 63.6984 22.1507C63.6984 21.0188 61.6218 21.5797 61.6218 20.4065C61.6218 19.8506 62.129 19.5322 62.6932 19.5322C63.1955 19.5322 63.5597 19.7171 63.8009 20.0154L63.6728 20.1339C63.4316 19.8205 63.0886 19.6864 62.6932 19.6864C62.1959 19.6864 61.8011 19.9847 61.8011 20.4065C61.8011 21.3842 63.8777 20.8696 63.8777 22.1507C63.8777 22.5368 63.6322 23.082 62.7088 23.082C62.1759 23.082 61.7598 22.8501 61.5137 22.5368Z" fill="white"/>
<path d="M68.9161 23.0203V19.7838L67.5829 23.0203H67.5317L66.1985 19.7838V23.0203H66.0342V19.5882H66.2959L67.5573 22.6599L68.8193 19.5882H69.0811V23.0203H68.9161Z" fill="white"/>
<path d="M74.3303 21.3067C74.3303 20.3654 73.7605 19.686 72.884 19.686C71.9969 19.686 71.4371 20.3654 71.4371 21.3067C71.4371 22.2381 71.9969 22.9275 72.884 22.9275C73.7605 22.9275 74.3303 22.2381 74.3303 21.3067ZM71.2578 21.3067C71.2578 20.314 71.8888 19.5318 72.884 19.5318C73.8742 19.5318 74.5096 20.314 74.5096 21.3067C74.5096 22.2995 73.8742 23.0823 72.884 23.0823C71.8888 23.0823 71.2578 22.2995 71.2578 21.3067Z" fill="white"/>
</svg>
